<svg xmlns="http://www.w3.org/2000/svg" xmlns:xlink="http://www.w3.org/1999/xlink" width="433" zoomAndPan="magnify" viewBox="0 0 324.75 432.749982" height="577" preserveAspectRatio="xMidYMid meet" version="1.0"><defs><clipPath id="ebf0b90995"><path d="M 44 91 L 284 91 L 284 280 L 44 280 Z M 44 91 " clip-rule="nonzero"/></clipPath><clipPath id="5da6ffff3c"><path d="M 153.992188 32.492188 L 334.132812 189.664062 L 179.917969 366.414062 L -0.222656 209.246094 Z M 153.992188 32.492188 " clip-rule="nonzero"/></clipPath><clipPath id="b69f2f8ded"><path d="M 153.992188 32.492188 L 334.132812 189.664062 L 179.917969 366.414062 L -0.222656 209.246094 Z M 153.992188 32.492188 " clip-rule="nonzero"/></clipPath><clipPath id="58af8962bd"><path d="M 92.378906 148.089844 L 221 148.089844 L 221 229.777344 L 92.378906 229.777344 Z M 92.378906 148.089844 " clip-rule="nonzero"/></clipPath></defs><g clip-path="url(#ebf0b90995)"><g clip-path="url(#5da6ffff3c)"><g clip-path="url(#b69f2f8ded)"><path fill="#fd7895" d="M 258.097656 171.648438 C 286.023438 196.011719 288.800781 227.140625 276.277344 249.769531 C 266.128906 268.09375 245.941406 280.847656 220.9375 279.90625 C 210.6875 279.523438 200.96875 276.371094 190.953125 272.714844 C 158.242188 260.765625 160.886719 260.234375 127.257812 265.988281 C 75.476562 274.839844 32.1875 218.128906 47.964844 171.25 C 57.375 143.289062 84.289062 117.644531 138.597656 117.820312 C 172.574219 117.929688 187.179688 78.390625 222.199219 95.667969 C 231.863281 100.4375 239.738281 108.773438 241.9375 118.769531 C 245.527344 135.074219 237.101562 153.328125 258.097656 171.648438 " fill-opacity="1" fill-rule="evenodd"/></g></g></g><g clip-path="url(#58af8962bd)"><path fill="#fd7895" d="M 194.429688 148.105469 L 193.257812 148.148438 C 190.820312 148.199219 187.726562 148.648438 183.976562 149.496094 C 170.605469 154.015625 162.070312 156.417969 158.371094 156.707031 C 156.582031 157.140625 148.023438 156.207031 132.6875 153.90625 C 126.613281 153.605469 122.339844 153.78125 119.863281 154.429688 C 118.863281 154.652344 117.699219 154.960938 116.367188 155.351562 L 104.050781 159.761719 L 102.734375 160.398438 C 99.316406 162.152344 96.71875 164.378906 94.9375 167.078125 C 93.785156 169.023438 93.035156 170.910156 92.691406 172.742188 L 92.472656 175.445312 C 92.527344 177.222656 92.984375 178.945312 93.847656 180.609375 C 95.257812 183.75 98.90625 187.050781 104.785156 190.511719 C 107.375 191.9375 110.769531 192.582031 114.96875 192.433594 C 129.167969 190.320312 136.023438 189.453125 135.53125 189.832031 C 139.46875 190.195312 141.90625 191.140625 142.835938 192.671875 C 143.835938 194.351562 143.804688 196.046875 142.746094 197.753906 L 129.316406 211.222656 C 127.929688 213.195312 127.304688 215.261719 127.445312 217.429688 C 127.957031 220.886719 130.660156 224.097656 135.5625 227.0625 C 137.210938 228.058594 139 228.726562 140.925781 229.070312 C 143.390625 229.359375 144.914062 229.429688 145.492188 229.292969 C 147.496094 229.34375 149.65625 229.136719 151.976562 228.675781 L 155.578125 227.796875 C 158.058594 227.082031 160.695312 226.109375 163.492188 224.882812 C 169.085938 222.429688 175.3125 218.957031 182.175781 214.460938 C 183.152344 214.195312 184.085938 214.121094 184.980469 214.238281 C 188.726562 215.53125 191.152344 216.199219 192.261719 216.230469 C 194.183594 216.421875 197.164062 215.832031 201.199219 214.460938 C 205.660156 212.945312 209.328125 211.371094 212.195312 209.746094 C 213.160156 209.359375 214.863281 208.105469 217.304688 205.996094 C 218.140625 205.140625 218.777344 204.273438 219.214844 203.394531 C 221.109375 199.6875 220.125 195.5625 216.273438 191.011719 C 215.078125 189.625 213.414062 188.175781 211.285156 186.664062 C 210.238281 185.898438 206.589844 184.050781 200.332031 181.132812 C 198.78125 180.246094 197.984375 179.4375 197.933594 178.703125 C 197.734375 177.816406 198.300781 176.378906 199.636719 174.394531 L 209.796875 161.949219 C 210.519531 159.460938 210.585938 157.640625 209.992188 156.484375 C 208.441406 153.8125 206.628906 151.890625 204.554688 150.722656 C 204.148438 150.246094 202.285156 149.542969 198.964844 148.609375 C 197.5625 148.320312 196.050781 148.152344 194.429688 148.105469 " fill-opacity="1" fill-rule="nonzero"/></g></svg>